<svg height="511pt" viewBox="0 -95 511.99905 511" width="511pt" xmlns="http://www.w3.org/2000/svg">
    <path d="m491.410156 251.382812-167.914062-96.941406c-8.011719-26.425781-30.480469-45.433594-57.496094-49.234375v-2.484375c23.679688-4.671875 41.597656-25.597656 41.597656-50.625 0-28.453125-23.148437-51.597656-51.597656-51.597656-23.3125 0-43.808594 15.726562-49.839844 38.242188-1.429687 5.335937 1.734375 10.816406 7.070313 12.246093 5.335937 1.433594 10.816406-1.734375 12.246093-7.070312 3.695313-13.789063 16.246094-23.417969 30.519532-23.417969 17.425781 0 31.601562 14.171875 31.601562 31.597656 0 17.421875-14.175781 31.597656-31.601562 31.597656-5.519532 0-9.996094 4.476563-9.996094 10v11.511719c-27.019531 3.800781-49.484375 22.808594-57.496094 49.234375l-15.988281 9.226563c-4.78125 2.761719-6.421875 8.875-3.660156 13.660156 2.761719 4.78125 8.875 6.421875 13.660156 3.660156l19.558594-11.292969c2.386719-1.375 4.097656-3.675781 4.730469-6.351562 5.421874-22.875 25.648437-38.851562 49.191406-38.851562 23.546875 0 43.773437 15.976562 49.195312 38.851562.632813 2.675781 2.34375 4.976562 4.730469 6.351562l171.484375 99.007813c10.125 5.84375 13.605469 18.835937 7.761719 28.957031l-.203125.347656-227.964844-131.617187c-3.09375-1.785156-6.90625-1.785156-10 0l-227.96875 131.617187-.203125-.347656c-5.84375-10.121094-2.359375-23.113281 7.761719-28.957031l82.648437-47.71875c4.785157-2.761719 6.421875-8.875 3.660157-13.65625-2.757813-4.785156-8.875-6.421875-13.65625-3.660156l-82.652344 47.714843c-19.671875 11.359376-26.4375 36.605469-15.078125 56.277344l5.199219 9.007813c2.761718 4.78125 8.878906 6.421875 13.660156 3.660156l15-8.660156h305.191406c5.523438 0 10-4.476563 10-10 0-5.523438-4.476562-10-10-10h-270.554688l181.992188-105.070313 181.988281 105.070313h-13.429687c-5.519532 0-10 4.476562-10 10 0 5.523437 4.480468 10 10 10h48.070312l15 8.660156c1.574219.910156 3.292969 1.339844 4.988282 1.339844 3.457031 0 6.816406-1.792969 8.671874-5l5.199219-9.007813c11.359375-19.671875 4.59375-44.917968-15.078125-56.277344zm0 0"/>
    <path d="m142.882812 202.332031c1.503907 0 3.027344-.339843 4.464844-1.058593l.007813-.003907c4.9375-2.46875 6.9375-8.472656 4.46875-13.414062-2.472657-4.941407-8.484375-6.941407-13.417969-4.472657-4.941406 2.472657-6.945312 8.476563-4.472656 13.417969 1.75 3.503907 5.28125 5.53125 8.949218 5.53125zm0 0"/>
    <path d="m384.566406 291.667969h-.007812c-5.523438 0-9.996094 4.476562-9.996094 10 0 5.523437 4.480469 10 10.003906 10 5.523438 0 10-4.476563 10-10 0-5.523438-4.480468-10-10-10zm0 0"/>
</svg>